<svg width="267" height="118" viewBox="0 0 267 118" fill="none" xmlns="http://www.w3.org/2000/svg">
<path d="M21.5 0.5H105.5L112.5 7.38235H259.5L266.5 14.2647V110.618L259.5 117.5H63.5L56.5 110.618H28.5L21.5 117.5H7.5L0.5 110.618V21.1471L21.5 0.5Z" stroke="white"/>
<path d="M115.43 0.5H118.816L123.895 5.31765H120.509L115.43 0.5Z" stroke="white"/>
<path d="M109 0.5H112.386L117.465 5.31765H114.079L109 0.5Z" stroke="white"/>
<path d="M121.774 0.5H125.16L130.239 5.31765H126.853L121.774 0.5Z" stroke="white"/>
<path d="M128.117 0.5H186.52L191.95 5.31765H133.5L128.117 0.5Z" stroke="white"/>
<path d="M25.5 117.5L30 113.3H55L59.5 117.5H25.5Z" stroke="white"/>
</svg>
